<svg width="150" height="25" viewBox="0 0 150 25" fill="none" xmlns="http://www.w3.org/2000/svg">
<path d="M3.90143 0.727272V24H0.39007V0.727272H3.90143ZM21.7083 6.84091C21.587 5.76515 21.087 4.93182 20.2083 4.34091C19.3295 3.74242 18.2234 3.44318 16.8901 3.44318C15.9355 3.44318 15.1098 3.5947 14.4128 3.89773C13.7158 4.19318 13.1742 4.60227 12.7878 5.125C12.409 5.64015 12.2196 6.22727 12.2196 6.88636C12.2196 7.43939 12.3484 7.91667 12.606 8.31818C12.8711 8.7197 13.2158 9.05682 13.6401 9.32955C14.0719 9.5947 14.534 9.81818 15.0264 10C15.5189 10.1742 15.9923 10.3182 16.4469 10.4318L18.7196 11.0227C19.462 11.2045 20.2234 11.4508 21.0037 11.7614C21.784 12.072 22.5075 12.4811 23.1742 12.9886C23.8408 13.4962 24.3787 14.125 24.7878 14.875C25.2045 15.625 25.4128 16.5227 25.4128 17.5682C25.4128 18.8864 25.0719 20.0568 24.3901 21.0795C23.7158 22.1023 22.7348 22.9091 21.4469 23.5C20.1666 24.0909 18.6173 24.3864 16.7992 24.3864C15.0567 24.3864 13.5492 24.1098 12.2764 23.5568C11.0037 23.0038 10.0075 22.2197 9.2878 21.2045C8.5681 20.1818 8.17037 18.9697 8.09462 17.5682H11.6173C11.6855 18.4091 11.9583 19.1098 12.4355 19.6705C12.9204 20.2235 13.5378 20.6364 14.2878 20.9091C15.0454 21.1742 15.8749 21.3068 16.7764 21.3068C17.7689 21.3068 18.6514 21.1515 19.4242 20.8409C20.2045 20.5227 20.8181 20.0833 21.2651 19.5227C21.712 18.9545 21.9355 18.2917 21.9355 17.5341C21.9355 16.8447 21.7386 16.2803 21.3446 15.8409C20.9583 15.4015 20.4317 15.0379 19.7651 14.75C19.106 14.4621 18.3598 14.2083 17.5264 13.9886L14.7764 13.2386C12.9128 12.7311 11.4355 11.9848 10.3446 11C9.26128 10.0152 8.71962 8.71212 8.71962 7.09091C8.71962 5.75 9.08325 4.57954 9.81052 3.57954C10.5378 2.57954 11.5226 1.80303 12.7651 1.25C14.0075 0.689393 15.409 0.40909 16.9696 0.40909C18.5454 0.40909 19.9355 0.685605 21.1401 1.23864C22.3522 1.79167 23.3067 2.55303 24.0037 3.52273C24.7007 4.48485 25.0643 5.59091 25.0946 6.84091H21.7083ZM29.6088 0.727272H33.8702L41.2793 18.8182H41.552L48.9611 0.727272H53.2225V24H49.8815V7.15909H49.6656L42.802 23.9659H40.0293L33.1656 7.14773H32.9497V24H29.6088V0.727272ZM78.5435 12.3636C78.5435 14.8485 78.0889 16.9848 77.1798 18.7727C76.2708 20.553 75.0245 21.9242 73.4412 22.8864C71.8654 23.8409 70.0738 24.3182 68.0662 24.3182C66.0511 24.3182 64.2518 23.8409 62.6685 22.8864C61.0927 21.9242 59.8503 20.5492 58.9412 18.7614C58.0321 16.9735 57.5776 14.8409 57.5776 12.3636C57.5776 9.87879 58.0321 7.74621 58.9412 5.96591C59.8503 4.17803 61.0927 2.80682 62.6685 1.85227C64.2518 0.890151 66.0511 0.40909 68.0662 0.40909C70.0738 0.40909 71.8654 0.890151 73.4412 1.85227C75.0245 2.80682 76.2708 4.17803 77.1798 5.96591C78.0889 7.74621 78.5435 9.87879 78.5435 12.3636ZM75.0662 12.3636C75.0662 10.4697 74.7594 8.875 74.1458 7.57954C73.5397 6.27651 72.7064 5.29167 71.6458 4.625C70.5927 3.95076 69.3995 3.61364 68.0662 3.61364C66.7253 3.61364 65.5283 3.95076 64.4753 4.625C63.4223 5.29167 62.5889 6.27651 61.9753 7.57954C61.3692 8.875 61.0662 10.4697 61.0662 12.3636C61.0662 14.2576 61.3692 15.8561 61.9753 17.1591C62.5889 18.4545 63.4223 19.4394 64.4753 20.1136C65.5283 20.7803 66.7253 21.1136 68.0662 21.1136C69.3995 21.1136 70.5927 20.7803 71.6458 20.1136C72.7064 19.4394 73.5397 18.4545 74.1458 17.1591C74.7594 15.8561 75.0662 14.2576 75.0662 12.3636ZM101.705 0.727272V24H98.4781L86.6486 6.93182H86.4327V24H82.9213V0.727272H86.1713L98.0122 17.8182H98.2281V0.727272H101.705ZM127.043 12.3636C127.043 14.8485 126.589 16.9848 125.68 18.7727C124.771 20.553 123.525 21.9242 121.941 22.8864C120.365 23.8409 118.574 24.3182 116.566 24.3182C114.551 24.3182 112.752 23.8409 111.168 22.8864C109.593 21.9242 108.35 20.5492 107.441 18.7614C106.532 16.9735 106.078 14.8409 106.078 12.3636C106.078 9.87879 106.532 7.74621 107.441 5.96591C108.35 4.17803 109.593 2.80682 111.168 1.85227C112.752 0.890151 114.551 0.40909 116.566 0.40909C118.574 0.40909 120.365 0.890151 121.941 1.85227C123.525 2.80682 124.771 4.17803 125.68 5.96591C126.589 7.74621 127.043 9.87879 127.043 12.3636ZM123.566 12.3636C123.566 10.4697 123.259 8.875 122.646 7.57954C122.04 6.27651 121.206 5.29167 120.146 4.625C119.093 3.95076 117.9 3.61364 116.566 3.61364C115.225 3.61364 114.028 3.95076 112.975 4.625C111.922 5.29167 111.089 6.27651 110.475 7.57954C109.869 8.875 109.566 10.4697 109.566 12.3636C109.566 14.2576 109.869 15.8561 110.475 17.1591C111.089 18.4545 111.922 19.4394 112.975 20.1136C114.028 20.7803 115.225 21.1136 116.566 21.1136C117.9 21.1136 119.093 20.7803 120.146 20.1136C121.206 19.4394 122.04 18.4545 122.646 17.1591C123.259 15.8561 123.566 14.2576 123.566 12.3636ZM132.299 0.727272L138.776 19.6818H139.038L145.515 0.727272H149.311L140.936 24H136.879L128.504 0.727272H132.299Z" fill="white"/>
</svg>
